<mxfile host="app.diagrams.net" modified="2023-10-08T03:20:38.371Z" agent="Mozilla/5.0 (Windows NT 10.0; Win64; x64) AppleWebKit/537.36 (KHTML, like Gecko) Chrome/117.0.0.0 Safari/537.36" version="21.8.1" etag="rU196UEHYHIi1QS9rY1Y" type="github">
  <diagram name="第 1 页" id="EDFgwKcmiIsy-oKQS1p1">
    <mxGraphModel>
      <root>
        <mxCell id="0" />
        <mxCell id="1" parent="0" />
      </root>
    </mxGraphModel>
  </diagram>
</mxfile>
